<mxfile host="Electron" agent="Mozilla/5.0 (Windows NT 10.0; Win64; x64) AppleWebKit/537.36 (KHTML, like Gecko) draw.io/28.2.5 Chrome/138.0.7204.251 Electron/37.6.1 Safari/537.36" version="28.2.5">
  <diagram name="Page-1" id="TU6j4XMP9tYtJwAjrXYR">
    <mxGraphModel dx="772" dy="501" grid="1" gridSize="10" guides="1" tooltips="1" connect="1" arrows="1" fold="1" page="1" pageScale="1" pageWidth="850" pageHeight="1100" math="0" shadow="0">
      <root>
        <mxCell id="0" />
        <mxCell id="1" parent="0" />
        <mxCell id="uMEUlqfxkO7CdfmcYM74-9" style="edgeStyle=orthogonalEdgeStyle;rounded=0;orthogonalLoop=1;jettySize=auto;html=1;exitX=0.5;exitY=1;exitDx=0;exitDy=0;" edge="1" parent="1" source="uMEUlqfxkO7CdfmcYM74-1" target="uMEUlqfxkO7CdfmcYM74-2">
          <mxGeometry relative="1" as="geometry" />
        </mxCell>
        <mxCell id="uMEUlqfxkO7CdfmcYM74-1" value="Bắt đầu chương trình" style="ellipse;whiteSpace=wrap;html=1;" vertex="1" parent="1">
          <mxGeometry x="320" y="40" width="120" height="80" as="geometry" />
        </mxCell>
        <mxCell id="uMEUlqfxkO7CdfmcYM74-10" style="edgeStyle=orthogonalEdgeStyle;rounded=0;orthogonalLoop=1;jettySize=auto;html=1;exitX=0.5;exitY=1;exitDx=0;exitDy=0;" edge="1" parent="1" source="uMEUlqfxkO7CdfmcYM74-2" target="uMEUlqfxkO7CdfmcYM74-3">
          <mxGeometry relative="1" as="geometry" />
        </mxCell>
        <mxCell id="uMEUlqfxkO7CdfmcYM74-2" value="Nhập vào số điểm" style="shape=parallelogram;perimeter=parallelogramPerimeter;whiteSpace=wrap;html=1;fixedSize=1;" vertex="1" parent="1">
          <mxGeometry x="320" y="160" width="120" height="80" as="geometry" />
        </mxCell>
        <mxCell id="uMEUlqfxkO7CdfmcYM74-7" style="edgeStyle=orthogonalEdgeStyle;rounded=0;orthogonalLoop=1;jettySize=auto;html=1;exitX=0;exitY=0.5;exitDx=0;exitDy=0;" edge="1" parent="1" source="uMEUlqfxkO7CdfmcYM74-3" target="uMEUlqfxkO7CdfmcYM74-5">
          <mxGeometry relative="1" as="geometry" />
        </mxCell>
        <mxCell id="uMEUlqfxkO7CdfmcYM74-3" value="" style="rhombus;whiteSpace=wrap;html=1;" vertex="1" parent="1">
          <mxGeometry x="320" y="280" width="120" height="80" as="geometry" />
        </mxCell>
        <mxCell id="uMEUlqfxkO7CdfmcYM74-4" value="Kiểm tra điều kiện điểm &amp;gt;=5?" style="text;html=1;align=center;verticalAlign=middle;whiteSpace=wrap;rounded=0;" vertex="1" parent="1">
          <mxGeometry x="350" y="305" width="60" height="30" as="geometry" />
        </mxCell>
        <mxCell id="uMEUlqfxkO7CdfmcYM74-15" style="edgeStyle=orthogonalEdgeStyle;rounded=0;orthogonalLoop=1;jettySize=auto;html=1;exitX=0.5;exitY=1;exitDx=0;exitDy=0;entryX=0;entryY=0.5;entryDx=0;entryDy=0;" edge="1" parent="1" source="uMEUlqfxkO7CdfmcYM74-5" target="uMEUlqfxkO7CdfmcYM74-13">
          <mxGeometry relative="1" as="geometry" />
        </mxCell>
        <mxCell id="uMEUlqfxkO7CdfmcYM74-5" value="Đạt" style="shape=parallelogram;perimeter=parallelogramPerimeter;whiteSpace=wrap;html=1;fixedSize=1;" vertex="1" parent="1">
          <mxGeometry x="160" y="370" width="120" height="60" as="geometry" />
        </mxCell>
        <mxCell id="uMEUlqfxkO7CdfmcYM74-16" style="edgeStyle=orthogonalEdgeStyle;rounded=0;orthogonalLoop=1;jettySize=auto;html=1;exitX=0.5;exitY=1;exitDx=0;exitDy=0;entryX=1;entryY=0.5;entryDx=0;entryDy=0;" edge="1" parent="1" source="uMEUlqfxkO7CdfmcYM74-6" target="uMEUlqfxkO7CdfmcYM74-13">
          <mxGeometry relative="1" as="geometry" />
        </mxCell>
        <mxCell id="uMEUlqfxkO7CdfmcYM74-6" value="Không đạt" style="shape=parallelogram;perimeter=parallelogramPerimeter;whiteSpace=wrap;html=1;fixedSize=1;" vertex="1" parent="1">
          <mxGeometry x="480" y="370" width="120" height="60" as="geometry" />
        </mxCell>
        <mxCell id="uMEUlqfxkO7CdfmcYM74-8" style="edgeStyle=orthogonalEdgeStyle;rounded=0;orthogonalLoop=1;jettySize=auto;html=1;exitX=1;exitY=0.5;exitDx=0;exitDy=0;entryX=0.561;entryY=0.028;entryDx=0;entryDy=0;entryPerimeter=0;" edge="1" parent="1" source="uMEUlqfxkO7CdfmcYM74-3" target="uMEUlqfxkO7CdfmcYM74-6">
          <mxGeometry relative="1" as="geometry" />
        </mxCell>
        <mxCell id="uMEUlqfxkO7CdfmcYM74-11" value="đúng" style="text;html=1;align=center;verticalAlign=middle;whiteSpace=wrap;rounded=0;" vertex="1" parent="1">
          <mxGeometry x="220" y="290" width="60" height="30" as="geometry" />
        </mxCell>
        <mxCell id="uMEUlqfxkO7CdfmcYM74-12" value="sai" style="text;html=1;align=center;verticalAlign=middle;whiteSpace=wrap;rounded=0;" vertex="1" parent="1">
          <mxGeometry x="490" y="290" width="60" height="30" as="geometry" />
        </mxCell>
        <mxCell id="uMEUlqfxkO7CdfmcYM74-13" value="Kết thúc chương trình" style="ellipse;whiteSpace=wrap;html=1;" vertex="1" parent="1">
          <mxGeometry x="320" y="480" width="120" height="80" as="geometry" />
        </mxCell>
      </root>
    </mxGraphModel>
  </diagram>
</mxfile>
